<svg   id="chart"   width="1000"   height="500"   viewBox="0 0 1000 500"   xmlns="http://www.w3.org/2000/svg" >      <path d="M 0,493.4354057157942 C 0,493.4354057157942 100,461.0029776792461 100,461.0029776792461 C 100,461.0029776792461 200,449.41170835284845 200,449.41170835284845 C 200,449.41170835284845 300,352.8530614653404 300,352.8530614653404 C 300,352.8530614653404 400,330.2086677438801 400,330.2086677438801 C 400,330.2086677438801 500,332.1333665437987 500,332.1333665437987 C 500,332.1333665437987 600,266.50904860933747 600,266.50904860933747 C 600,266.50904860933747 700,194.54769841748475 700,194.54769841748475 C 700,194.54769841748475 800,272.49522026528405 800,272.49522026528405 C 800,272.49522026528405 900,122.98671088957781 900,122.98671088957781 C 900,122.98671088957781 1000,53.21567432826589 1000,53.21567432826589,L 1000 500,L 0 500Z" fill="#00a21b1a" />   <path d="M 0,493.4354057157942 C 0,493.4354057157942 100,461.0029776792461 100,461.0029776792461 C 100,461.0029776792461 200,449.41170835284845 200,449.41170835284845 C 200,449.41170835284845 300,352.8530614653404 300,352.8530614653404 C 300,352.8530614653404 400,330.2086677438801 400,330.2086677438801 C 400,330.2086677438801 500,332.1333665437987 500,332.1333665437987 C 500,332.1333665437987 600,266.50904860933747 600,266.50904860933747 C 600,266.50904860933747 700,194.54769841748475 700,194.54769841748475 C 700,194.54769841748475 800,272.49522026528405 800,272.49522026528405 C 800,272.49522026528405 900,122.98671088957781 900,122.98671088957781 C 900,122.98671088957781 1000,53.21567432826589 1000,53.21567432826589" fill="none" stroke="#00a21b" stroke-width="4px" />   <g>   		<circle cx="0" cy="493.4354057157942" r="8" fill="#00a21b" />,		<circle cx="100" cy="461.0029776792461" r="8" fill="#00a21b" />,		<circle cx="200" cy="449.41170835284845" r="8" fill="#00a21b" />,		<circle cx="300" cy="352.8530614653404" r="8" fill="#00a21b" />,		<circle cx="400" cy="330.2086677438801" r="8" fill="#00a21b" />,		<circle cx="500" cy="332.1333665437987" r="8" fill="#00a21b" />,		<circle cx="600" cy="266.50904860933747" r="8" fill="#00a21b" />,		<circle cx="700" cy="194.54769841748475" r="8" fill="#00a21b" />,		<circle cx="800" cy="272.49522026528405" r="8" fill="#00a21b" />,		<circle cx="900" cy="122.98671088957781" r="8" fill="#00a21b" />,		<circle cx="1000" cy="53.21567432826589" r="8" fill="#00a21b" />   </g> </svg>